<?xml version="1.0" encoding="utf-8"?>
<!-- Generator: Adobe Illustrator 26.3.1, SVG Export Plug-In . SVG Version: 6.00 Build 0)  -->
<svg version="1.1" id="SurrealDB" xmlns="http://www.w3.org/2000/svg" xmlns:xlink="http://www.w3.org/1999/xlink" x="0px" y="0px"
	 viewBox="0 0 3383.7 688.7" style="enable-background:new 0 0 3383.7 688.7;" xml:space="preserve">
<style type="text/css">
	.st0{fill:#272C39;}
	.st1{fill:#FF7FCF;}
	.st2{fill:#CA7FFF;}
</style>
<path class="st0" d="M314.4,303c21.7,4.1,42.7,10.7,63,19.8c20.3,9.1,38.3,21,54.2,35.7c15.9,14.7,28.6,31.9,38.3,51.5
	c9.7,19.7,14.5,42.1,14.5,67.4c0,30.5-5.7,58.7-17.2,84.5c-11.4,25.8-27.7,48.2-48.9,66.9c-21.1,18.8-46.8,33.5-77.1,44
	c-30.2,10.6-64.2,15.9-101.7,15.9c-34.1,0-65.8-6-95.1-18.1c-29.4-12-54.8-28.3-76.2-48.9c-21.4-20.5-38.2-44.3-50.2-71.3
	C6,523.4,0,495,0,465h137.4c2.9,27.6,13.6,50.6,32.1,69.1c18.5,18.5,41.8,27.7,70,27.7c32.9,0,59.1-7.3,78.8-22
	c19.7-14.7,29.5-35.5,29.5-62.5c0-13.5-3.4-24.5-10.1-33c-6.8-8.5-16.6-16-29.5-22.5c-12.9-6.5-28.6-12.2-47.1-17.2
	c-18.5-5-39.5-10.1-63-15.4c-25.8-5.9-50.2-13.5-73.1-22.9c-22.9-9.4-43-20.8-60.3-34.3c-17.3-13.5-31-29.1-41-46.7
	c-10-17.6-15-37.9-15-60.8c0-29.4,5.4-56.1,16.3-80.1C36,120.4,51.4,99.5,71.3,81.9c20-17.6,44.2-31.3,72.7-41
	c28.5-9.7,60.3-14.5,95.6-14.5c31.7,0,61.7,5,89.8,15c28.2,10,53,23.8,74.4,41.4c21.4,17.6,38.3,38.3,50.6,62.1
	c12.3,23.8,18.5,49.8,18.5,77.9h-140c-5.9-20-17.5-36.5-34.8-49.8c-17.3-13.2-36.8-19.8-58.6-19.8c-26.4,0-48.7,6.3-66.9,18.9
	c-18.2,12.6-27.3,28.3-27.3,47.1c0,11.2,4.8,21.1,14.5,29.9c9.7,8.8,22.5,16.6,38.3,23.3c15.9,6.8,33.9,12.6,54.2,17.6
	C272.6,295.2,293.3,299.4,314.4,303z"/>
<rect x="906.2" y="199" class="st0" width="132.1" height="475.6"/>
<path class="st0" d="M1372.1,304.7c-18.2,0-35.4,3.5-51.5,10.6c-16.2,7-30.1,16.4-41.8,28.2c-11.8,11.8-21.1,25.7-28.2,41.8
	c-7,16.2-10.6,33.3-10.6,51.5c0,18.2,3.5,35.4,10.6,51.5c7,16.2,16.4,30.1,28.2,41.8c11.7,11.8,25.7,21.1,41.8,28.2
	c16.1,7,33.3,10.6,51.5,10.6c24.7,0,46.8-6.2,66.5-18.5c19.7-12.3,35.1-28.5,46.2-48.4h141.8c-7.6,27-19.4,51.8-35.2,74.4
	c-15.9,22.6-34.9,42.3-57.2,59c-22.3,16.7-47.3,29.8-74.9,39.2c-27.6,9.4-56.7,14.1-87.2,14.1c-36.4,0-70.8-6.6-103-19.8
	c-32.3-13.2-60.3-31.3-84.1-54.2c-23.8-22.9-42.6-49.6-56.4-80.1c-13.8-30.5-20.7-63.1-20.7-97.8c0-34.6,6.9-67.2,20.7-97.8
	c13.8-30.5,32.6-57.2,56.4-80.1c23.8-22.9,51.8-41,84.1-54.2c32.3-13.2,66.6-19.8,103-19.8c31.1,0,60.5,4.8,88.1,14.5
	c27.6,9.7,52.7,22.9,75.3,39.6c22.6,16.7,42,36.7,58.1,59.9c16.1,23.2,27.7,48.6,34.8,76.2h-139.1c-11.8-21.1-27.7-38.2-48-51.1
	C1421,311.2,1398,304.7,1372.1,304.7z"/>
<path class="st0" d="M1686.5,674.6V40.5h132.1v340.8L1971.9,199h158.5l-175.3,202.6l216.7,273h-160.3l-192.9-251v251H1686.5z"/>
<rect x="2223.2" y="199" class="st0" width="123.7" height="475.6"/>
<path class="st0" d="M2689.7,184.9c36.4,0,70.7,6.6,103,19.8c32.3,13.2,60.3,31.3,84.1,54.2c23.8,22.9,42.6,49.6,56.4,80.1
	c13.8,30.5,20.7,63.1,20.7,97.8c0,8.2-0.4,16-1.3,23.3c-0.9,7.3-1.9,14.8-3.1,22.5h-384c10,25.2,26,45.9,48,62.1
	c22,16.2,47.4,24.2,76.2,24.2c21.1,0,40.8-4.7,59-14.1c18.2-9.4,33.2-21.7,44.9-37h146.2c-8.8,24.7-21.3,47.6-37.4,68.7
	c-16.2,21.1-35.2,39.2-57.2,54.2s-46.1,26.7-72.2,35.2c-26.1,8.5-53.9,12.8-83.2,12.8c-36.4,0-70.8-6.6-103-19.8
	c-32.3-13.2-60.3-31.3-84.1-54.2c-23.8-22.9-42.6-49.6-56.4-80.1c-13.8-30.5-20.7-63.1-20.7-97.8c0-34.6,6.9-67.2,20.7-97.8
	c13.8-30.5,32.6-57.2,56.4-80.1c23.8-22.9,51.8-41,84.1-54.2C2618.9,191.6,2653.3,184.9,2689.7,184.9z M2813.9,391
	c-10-25.2-26.1-45.9-48.4-62.1c-22.3-16.1-47.6-24.2-75.7-24.2c-28.8,0-54.2,8.1-76.2,24.2c-22,16.2-38,36.8-48,62.1H2813.9z"/>
<path class="st0" d="M3242.8,394.6c17.6,1.8,34.8,5.9,51.5,12.3c16.7,6.5,31.7,15.3,44.9,26.4c13.2,11.2,23.9,24.5,32.1,40.1
	c8.2,15.6,12.3,33.3,12.3,53.3c0,25.2-5.3,48-15.9,68.3c-10.6,20.3-24.8,37.3-42.7,51.1c-17.9,13.8-38.5,24.4-61.7,31.7
	c-23.2,7.3-47.7,11-73.5,11c-25.2,0-49.6-3.7-73.1-11c-23.5-7.3-44.2-17.9-62.1-31.7c-17.9-13.8-32.1-30.8-42.7-51.1
	c-10.6-20.3-15.9-43-15.9-68.3h132.1c0,20,6.6,33.5,19.8,40.5c13.2,7,27.2,10.6,41.8,10.6c14.7,0,28.6-3.8,41.8-11.4
	c13.2-7.6,19.8-19.1,19.8-34.3c0-11.1-6.5-21.1-19.4-29.9c-12.9-8.8-29.4-14.7-49.3-17.6c-22.9-2.9-45.4-8.5-67.4-16.7
	c-22-8.2-41.4-18.5-58.1-30.8c-16.7-12.3-30.2-26.6-40.5-42.7c-10.3-16.1-15.4-33.6-15.4-52.4c0-24.1,5-45.8,15-65.2
	c10-19.4,23.6-35.8,41-49.3c17.3-13.5,37.4-23.9,60.3-31.3c22.9-7.3,47-11,72.2-11c25.8,0,50.1,3.7,72.7,11
	c22.6,7.3,42.6,17.9,59.9,31.7c17.3,13.8,31,30.7,41,50.6c10,20,15,42.9,15,68.7h-132.1c0-10-1.6-18.3-4.8-25.1
	c-3.2-6.7-7.5-12-12.8-15.9c-5.3-3.8-11.3-6.5-18.1-7.9c-6.8-1.5-13.7-2.2-20.7-2.2c-14.7,0-27.7,3.1-39.2,9.2
	c-11.4,6.2-17.2,17.2-17.2,33c0,7,3.2,13.7,9.7,19.8c6.5,6.2,15,11.8,25.5,16.7c10.6,5,22.3,9.1,35.2,12.3
	C3216.9,390.3,3229.8,392.8,3242.8,394.6z"/>
<path class="st0" d="M682.5,376.6v-29.5v-10.9v-24.3h132.1V199.2H682.5V40.7H550.4v295.6v10.9v29.5v9v37.1c0,34.7,6,67.2,18.1,97.8
	c12,30.5,28.9,57.2,50.6,80.1c21.7,22.9,47.7,41,77.9,54.2c30.2,13.2,63.5,19.8,100,19.8h17.6V554.8c-18.2,0-35.4-3.5-51.5-10.6
	c-16.2-7-30.1-16.4-41.8-28.2c-11.8-11.7-21.1-25.7-28.2-41.8c-7-16.1-10.6-33.3-10.6-51.5v-37.1V376.6z"/>
<path class="st1" d="M972.3,151.5L972.3,151.5c-41.8,0-75.7-33.9-75.7-75.7v0c0-41.8,33.9-75.7,75.7-75.7h0
	c41.8,0,75.7,33.9,75.7,75.7v0C1048,117.6,1014.1,151.5,972.3,151.5z"/>
<path class="st2" d="M2285,151.5L2285,151.5c-41.8,0-75.7-33.9-75.7-75.7v0c0-41.8,33.9-75.7,75.7-75.7l0,0
	c41.8,0,75.7,33.9,75.7,75.7v0C2360.7,117.6,2326.8,151.5,2285,151.5z"/>
</svg>
