<?xml version="1.0" encoding="utf-8"?>
<!-- Generator: Adobe Illustrator 26.3.1, SVG Export Plug-In . SVG Version: 6.00 Build 0)  -->
<svg version="1.1" id="Built_on_SurrealDB" xmlns="http://www.w3.org/2000/svg" xmlns:xlink="http://www.w3.org/1999/xlink" x="0px"
	 y="0px" viewBox="0 0 4559.9 1284.3" style="enable-background:new 0 0 4559.9 1284.3;" xml:space="preserve">
<style type="text/css">
	.st0{fill:#6A7389;}
	.st1{fill:url(#DB_00000178179064318854613650000001260268883532361362_);}
	.st2{fill:url(#Icon_00000067235468828032665480000001940343248442875563_);}
</style>
<g id="Built_on">
	<path class="st0" d="M120,110.1c6.8,9.3,9.9,19.2,9.9,30.9c0,9.9-2.5,18.6-6.8,26.6c-4.9,8-11.8,14.2-20.4,18.6S83.5,193,71.8,193
		H0V0h68c12.4,0,22.9,2.5,31.6,6.8s15.5,10.5,19.8,17.9c4.3,7.4,6.8,15.5,6.8,24.7c0,11.1-2.5,20.4-8,27.8s-13,13-22.3,16.1
		C105.2,95.9,113.8,101.5,120,110.1z M29.1,81h36.5c9.9,0,17.3-2.5,22.3-6.8c5.6-4.9,8-11.8,8-20.4s-2.5-15.5-8-20.4
		c-5.6-4.9-13-7.4-22.3-7.4H29.1V81z M92.2,159.6c5.6-4.9,8.7-12.4,8.7-21.7s-3.1-16.7-9.3-22.3s-14.2-8-24.1-8H29.1V167h39.6
		C79.2,167,86.6,164.6,92.2,159.6z"/>
	<path class="st0" d="M290.8,46.4v144.8h-29.1v-17.3c-4.3,6.2-10.5,10.5-17.9,14.2s-15.5,4.9-24.1,4.9c-11.1,0-21-2.5-30.3-6.8
		c-8.7-4.9-16.1-11.8-21-21s-7.4-20.4-7.4-33.4V46.4h29.1v80.4c0,13,3.1,22.9,9.3,29.7s14.8,10.5,26,10.5s19.8-3.7,26-10.5
		c6.2-6.8,9.9-16.7,9.9-29.7V46.4H290.8z"/>
	<path class="st0" d="M333.4,25.4c-3.1-3.1-4.3-6.2-4.3-10.5s1.2-7.4,4.3-10.5S340.2,0,344,0c4.3,0,7.4,1.2,10.5,4.3
		s4.3,6.2,4.3,10.5s-1.2,7.4-4.3,10.5s-6.2,4.3-10.5,4.3C340.2,29.7,336.5,28.5,333.4,25.4z"/>
	<rect x="329.7" y="46.4" class="st0" width="29.1" height="146.6"/>
	<path class="st0" d="M426.9,0v193h-29.1V0H426.9z"/>
	<path class="st0" d="M499.9,153.4c0,5.6,1.2,9.3,3.7,11.8s6.8,3.7,13,3.7h17.9v24.7h-22.9c-13,0-23.5-3.1-30.3-9.3
		s-10.5-16.1-10.5-30.3V16h29.7v137.3C500.5,153.4,499.9,153.4,499.9,153.4z"/>
	<path class="st0" d="M653.3,183.7c-11.1-6.2-19.2-14.8-25.4-26c-6.2-11.1-9.3-24.1-9.3-38.4s3.1-27.2,9.3-38.4s14.8-19.8,26-26
		s23.5-9.3,37.1-9.3s26,3.1,37.1,9.3s19.8,14.8,26,26s9.3,24.1,9.3,38.4s-3.1,27.2-9.9,38.4c-6.8,11.1-15.5,19.8-26.6,26
		s-23.5,9.3-37.1,9.3C676.2,193,664.4,189.9,653.3,183.7z M710.8,162.1c6.8-3.7,11.8-9.3,16.1-16.1c4.3-7.4,6.2-16.1,6.2-26
		s-1.9-19.2-6.2-26s-9.3-12.4-15.5-16.1c-6.8-3.7-13.6-5.6-21-5.6s-14.8,1.9-21,5.6s-11.8,9.3-15.5,16.1c-3.7,7.4-5.6,16.1-5.6,26
		c0,15.5,3.7,27.2,11.8,35.3c8,8,17.9,12.4,29.7,12.4C697.2,167.6,704.6,165.8,710.8,162.1z"/>
	<path class="st0" d="M893.9,53.2c8.7,4.9,15.5,11.8,21,21c4.9,9.3,7.4,20.4,7.4,33.4v84.8h-29.1V112c0-13-3.1-22.9-9.3-29.7
		s-14.8-10.5-26-10.5s-19.8,3.7-26,10.5S822,99,822,112v80.4h-29.1V48.9H822v16.7c4.9-6.2,11.1-10.5,18.6-13.6s15.5-4.9,24.1-4.9
		C875.4,46.4,885.3,48.9,893.9,53.2z"/>
	<rect x="453.5" y="46.4" class="st0" width="81" height="24.1"/>
</g>
<g>
	
		<linearGradient id="DB_00000088116974956624705930000002405385341732969382_" gradientUnits="userSpaceOnUse" x1="3828.4177" y1="412.0209" x2="4264.9048" y2="1168.0391">
		<stop  offset="0" style="stop-color:#FF00A0"/>
		<stop  offset="1" style="stop-color:#9600FF"/>
	</linearGradient>
	
		<path id="DB_00000016758915625124994280000016461386885611437752_" style="fill:url(#DB_00000088116974956624705930000002405385341732969382_);" d="
		M4489,775.9c84.5-64.2,39.3-205.8-52.4-238c-20.2-8.3-41.6-11.9-64.2-11.9h-221.3v536.5c13.1,0,251,0,251,0
		c42.8,0,83.3-15.5,113-44C4581.9,954.3,4574.7,823.4,4489,775.9z M4258.2,633h0.1h110.6c28.6,0,52.3,20.2,51.2,50
		c1.2,28.6-22.6,52.4-51.2,51.2h-110.6h-0.1V633z M4396.2,955.5h-138V838.9h138c28.6-1.2,52.4,30.9,51.2,59.5
		C4448.6,925.7,4424.8,956.7,4396.2,955.5z M3835.1,526H3631v536.6h204.1c148.2,0,268.3-120.1,268.3-268.3S3983.2,526,3835.1,526z
		 M3835.1,955.4c0,0,0,0-0.1,0h-97V633h96.9c0,0,0,0,0.1,0c89.1,0,161.3,72.2,161.3,161.2S3924.1,955.4,3835.1,955.4z"/>
	<path id="l_00000103242653431021337910000013777398160531640960_" d="M3476.1,526v536.6h107.1V526H3476.1z"/>
	<path id="a_00000114047365147663133050000011517088098890313346_" d="M3428.3,856.7c0-115.9-94-209.9-209.9-209.9
		s-209.9,94-209.9,209.9s94,209.9,209.9,209.9c37.3,0,72.4-9.8,102.8-26.9v22.8h107.1L3428.3,856.7
		C3428.3,856.8,3428.3,856.8,3428.3,856.7z M3218.4,959.5c-56.8,0-102.8-46-102.8-102.8s46-102.8,102.8-102.8s102.8,46,102.8,102.8
		S3275.2,959.5,3218.4,959.5z"/>
	<path id="e_00000011725667220689958660000006084327059228220294_" d="M2750.9,959.4c-43.3,0-80.4-26.8-95.5-64.7h301.9
		c2.3-12.3,3.4-25.1,3.4-38c0-115.9-94-209.9-209.9-209.9s-209.9,94-209.9,209.9s94,209.9,209.9,209.9
		c92.3,0,170.7-59.6,198.8-142.3h-121.3C2809.5,945.8,2781.8,959.4,2750.9,959.4z M2750.9,753.9c43.3,0,80.4,26.8,95.5,64.7h-191
		C2670.5,780.7,2707.6,753.9,2750.9,753.9z"/>
	<path id="r_00000127037221966445926390000000420214718076556192_" d="M2516.6,646.9c-91.6,0-172.5,59.4-199.9,146.2
		c-5.9,20.2-9.5,41.6-9.5,63.1v113.7v92.5h107.1V856.2c2.9-70.8,52.9-106.2,102.7-106.2V646.9
		C2516.9,646.9,2516.7,646.9,2516.6,646.9z"/>
	<path id="r_00000038389045402950038880000017212340058551358609_" d="M2282.9,646.9c-91.6,0-172.5,59.4-199.9,146.2
		c-5.9,20.2-9.5,41.6-9.5,63.1v113.7v92.5h107.1V856.2c2.9-70.8,52.9-106.2,102.7-106.2V646.9C2283.2,646.9,2283,646.9,2282.9,646.9
		z"/>
	<path id="u_00000165935716996902656450000018140784225834785210_" d="M1918.6,857.3c-5.9,141.6-199.9,141.6-204.6,0V743.6v-92.5
		h-107.1v92.5v113.6c0,21.4,3.6,42.8,9.5,63.1c27.4,86.9,108.3,146.3,199.9,146.3s172.5-59.4,199.9-146.2
		c5.9-20.2,9.5-41.6,9.5-63.1V743.6v-92.5h-107.1L1918.6,857.3L1918.6,857.3z"/>
	<path id="S_00000166662375492201169010000009477598989473204101_" d="M1412,748.8c-45.1-7.2-98.5-15.6-134.1-44.5
		c-22.6-18.2-13.1-47,10.7-62.8c46.3-30.3,123.3-13.3,138.8,42.1h121c0-98.8-104.4-162.8-201.8-161.6c-54.7,0-105.6,13.3-144.8,45.8
		c-47.4,38.6-71.1,112.1-41.5,166.5c48.7,80.8,166.2,79.6,245.7,112c21.4,10.9,34.5,23,34.5,45.8c0,49.5-43.9,70-93.8,70
		c-47.4,1.2-83-35-87.8-79.6h-118.7c3.6,174.9,232.6,237.7,361.9,133.8c36.8-31.4,57-76,57-124.1
		C1560.2,813.8,1486.7,760.8,1412,748.8z"/>
	
		<linearGradient id="Icon_00000129203449697522179440000011815446726355579563_" gradientUnits="userSpaceOnUse" x1="203.3477" y1="419.0972" x2="636.6956" y2="1169.6779">
		<stop  offset="0" style="stop-color:#FF00A0"/>
		<stop  offset="1" style="stop-color:#9600FF"/>
	</linearGradient>
	
		<path id="Icon_00000113316389820613155240000001228407474500178859_" style="fill:url(#Icon_00000129203449697522179440000011815446726355579563_);" d="
		M420,562.2l233.3,129.2v-51.8L420,510.7c-34.7,19.2-202.4,111.9-233.3,128.9C215.4,655.5,516.8,822,700,923.2v51.6
		c-24.9,13.8-280,154.7-280,154.7c-69.8-38.5-210.3-116.1-280-154.7V820.1l280,154.7l46.7-25.8L93.3,742.8v257.9L420,1181.1
		c32.2-17.8,302.8-167.3,326.6-180.5V897.5L280,639.6L420,562.2z M93.3,588v103.2l466.6,257.9l-140,77.4L186.6,897.3v51.8
		L419.9,1078c34.7-19.2,202.4-111.9,233.3-128.9c-28.7-15.9-330-182.4-513.2-283.7v-51.6c24.9-13.8,280-154.7,280-154.7
		c69.7,38.6,210.2,116.2,280,154.7v154.7L420,613.8l-46.7,25.8l373.3,206.3V588L420,407.5C387.7,425.4,117.2,574.9,93.3,588z
		 M420,304.4L0,536.5v515.7l420,232.1l420-232V536.5L420,304.4z M793.2,1026.4L420,1232.7L46.7,1026.4V562.3L420,356l373.3,206.3
		L793.2,1026.4z"/>
</g>
</svg>
