<?xml version="1.0" encoding="UTF-8"?>
<svg id="SurrealDB" xmlns="http://www.w3.org/2000/svg" version="1.1" viewBox="0 0 736.6 207.6">
  <defs>
    <style>
      .cls-1 {
        fill: #fff;
        stroke-width: 0px;
      }
    </style>
  </defs>
  <g id="SurrealDB-2" data-name="SurrealDB">
    <path id="DB" class="cls-1" d="M725.1,125.3c13.7-10.4,6.4-33.3-8.5-38.5-3.3-1.3-6.7-1.9-10.4-1.9h-35.8v86.7h40.6c6.9,0,13.5-2.5,18.3-7.1,10.8-10.3,9.6-31.5-4.2-39.2ZM687.8,102.4h17.9c4.6,0,8.5,3.3,8.3,8.1.2,4.6-3.7,8.5-8.3,8.3h-17.9v-16.4ZM710.1,154.4h-22.3v-18.8h22.3c4.6-.2,8.5,5,8.3,9.6.1,4.4-3.7,9.4-8.3,9.2ZM636.5,88.2c-5.4-2.1-11.3-3.3-17.9-3.3h-32.3v86.7h32.3c6.9,0,13.1-1.1,18.5-3.3,16.5-6.4,25.8-22.7,25.6-40.2.2-17.4-9.6-33.6-26.2-39.9ZM644.2,128.4c.2,13.7-11.2,26.2-25,26h-15.8v-51.9h15.8c13.9-.3,25.2,12.4,25,25.9Z"/>
    <g id="Surreal">
      <path id="l" class="cls-1" d="M561.3,84.9v86.7h17.3v-86.7h-17.3Z"/>
      <path id="a" class="cls-1" d="M519.9,105.7c-18.6,0-33.6,14.8-33.6,33s15,33,33.6,33,11.5-1.5,16.3-4.2v4.2h17.3v-33c0-18.2-14.9-33-33.6-33ZM519.8,155.8c-9.8,0-17.5-7.7-17.5-17.3s7.9-17.3,17.5-17.3,17.5,7.7,17.5,17.3c0,9.6-8,17.3-17.5,17.3Z"/>
      <path id="e" class="cls-1" d="M444.7,105.7c20-.6,37.5,18.6,33.2,39h-49.2c4.6,12.7,21.3,15.4,29.2,4.6h18.8c-7.9,23.4-39.2,29.8-56.1,12.7-21.6-21.3-5.3-56.5,24.1-56.3ZM460.7,132.8c-5.8-15-26.1-15-31.9,0h31.9Z"/>
      <path id="r" class="cls-1" d="M406.9,105.7c-14.8,0-27.9,9.6-32.3,23.6-1,3.3-1.5,6.7-1.5,10.2v32.1h17.3v-32.1c.4-11.5,8.5-17.3,16.5-17.3v-16.5Z"/>
      <path id="r-2" data-name="r" class="cls-1" d="M369.2,105.7c-14.8,0-27.9,9.6-32.3,23.6-1,3.3-1.5,6.7-1.5,10.2v32.1h17.3v-32.1c.4-11.5,8.5-17.3,16.5-17.3v-16.5Z"/>
      <path id="u" class="cls-1" d="M310.2,105.7v32.1c-1,22.9-32.3,22.9-33.1,0v-32.1h-17.3v32.1c0,3.5.6,6.9,1.5,10.2,4.4,14,17.5,23.6,32.3,23.6s28-9.6,32.4-23.6c1-3.3,1.5-6.7,1.5-10.2v-32.1s-17.3,0-17.3,0Z"/>
      <path id="S" class="cls-1" d="M228.3,121c-7.3-1.1-16-2.5-21.7-7.1-3.7-2.9-2.1-7.5,1.7-10,7.5-4.8,20-2.1,22.5,6.7h19.6c0-15.7-16.9-25.9-32.7-25.7-8.8,0-17.1,2.1-23.4,7.3-7.7,6.1-11.5,17.9-6.7,26.5,7.9,12.9,26.9,12.7,39.8,17.8,3.5,1.7,5.6,3.7,5.6,7.3,0,7.9-7.1,11.1-15.2,11.1-7.7.2-13.4-5.6-14.2-12.7h-19.2c.6,27.9,37.6,37.8,58.6,21.3,5.9-5,9.2-12.1,9.2-19.8.1-12.3-11.8-20.7-23.9-22.7Z"/>
    </g>
    <path id="Icon" class="cls-1" d="M67.9,90.9l37.7,20.9v-8.4l-37.7-20.9c-5.6,3.1-32.7,18.1-37.7,20.8,4.6,2.6,53.4,29.5,83,45.8v8.3c-4,2.2-45.3,25-45.3,25-11.3-6.2-34-18.8-45.3-25v-25l45.3,25,7.5-4.2L15,119.9v41.7l52.8,29.2c5.2-2.9,48.9-27,52.8-29.2v-16.7l-75.4-41.7,22.7-12.3ZM15.1,95v16.7l75.4,41.7-22.6,12.5-37.7-20.9v8.4l37.7,20.8c5.6-3.1,32.7-18.1,37.7-20.8-4.6-2.6-53.3-29.5-83-45.9v-8.3c4-2.2,45.3-25,45.3-25,11.3,6.2,34,18.8,45.3,25v25l-45.3-25-7.5,4.2,60.3,33.3v-41.7l-52.8-29.1c-5.2,2.9-49,27-52.8,29.1ZM67.9,49.2L0,86.7v83.4l67.9,37.5,67.9-37.5v-83.4l-67.9-37.5ZM128.2,165.9l-60.3,33.3L7.5,165.9v-75l60.3-33.3,60.3,33.3v75Z"/>
  </g>
  <g id="Built_on" data-name="Built on">
    <path class="cls-1" d="M19.4,17.8c1.1,1.5,1.6,3.1,1.6,5s-.4,3-1.1,4.3c-.8,1.3-1.9,2.3-3.3,3s-3.1,1.1-5,1.1H0V0h11C13,0,14.7.4,16.1,1.1c1.4.7,2.5,1.7,3.2,2.9s1.1,2.5,1.1,4-.4,3.3-1.3,4.5-2.1,2.1-3.6,2.6c1.5.4,2.9,1.3,3.9,2.7ZM4.7,13.1h5.9c1.6,0,2.8-.4,3.6-1.1.9-.8,1.3-1.9,1.3-3.3s-.4-2.5-1.3-3.3c-.9-.8-2.1-1.2-3.6-1.2h-5.9v8.9ZM14.9,25.8c.9-.8,1.4-2,1.4-3.5s-.5-2.7-1.5-3.6-2.3-1.3-3.9-1.3h-6.2v9.6h6.4c1.7,0,2.9-.4,3.8-1.2Z"/>
    <path class="cls-1" d="M47,7.5v23.4h-4.7v-2.8c-.7,1-1.7,1.7-2.9,2.3-1.2.6-2.5.8-3.9.8s-3.4-.4-4.9-1.1c-1.4-.8-2.6-1.9-3.4-3.4s-1.2-3.3-1.2-5.4V7.5h4.7v13c0,2.1.5,3.7,1.5,4.8,1,1.1,2.4,1.7,4.2,1.7s3.2-.6,4.2-1.7,1.6-2.7,1.6-4.8V7.5h4.8Z"/>
    <path class="cls-1" d="M53.9,4.1c-.5-.5-.7-1-.7-1.7s.2-1.2.7-1.7S55,0,55.6,0s1.2.2,1.7.7c.5.5.7,1,.7,1.7s-.2,1.2-.7,1.7c-.5.5-1,.7-1.7.7s-1.2-.2-1.7-.7Z"/>
    <rect class="cls-1" x="53.3" y="7.5" width="4.7" height="23.7"/>
    <path class="cls-1" d="M69,0v31.2h-4.7V0h4.7Z"/>
    <path class="cls-1" d="M80.8,24.8c0,.9.2,1.5.6,1.9s1.1.6,2.1.6h2.9v4h-3.7c-2.1,0-3.8-.5-4.9-1.5s-1.7-2.6-1.7-4.9V2.6h4.8v22.2s-.1,0-.1,0Z"/>
    <path class="cls-1" d="M105.6,29.7c-1.8-1-3.1-2.4-4.1-4.2-1-1.8-1.5-3.9-1.5-6.2s.5-4.4,1.5-6.2,2.4-3.2,4.2-4.2c1.8-1,3.8-1.5,6-1.5s4.2.5,6,1.5,3.2,2.4,4.2,4.2,1.5,3.9,1.5,6.2-.5,4.4-1.6,6.2c-1.1,1.8-2.5,3.2-4.3,4.2s-3.8,1.5-6,1.5-4.1-.5-5.9-1.5ZM114.9,26.2c1.1-.6,1.9-1.5,2.6-2.6.7-1.2,1-2.6,1-4.2s-.3-3.1-1-4.2-1.5-2-2.5-2.6c-1.1-.6-2.2-.9-3.4-.9s-2.4.3-3.4.9c-1,.6-1.9,1.5-2.5,2.6-.6,1.2-.9,2.6-.9,4.2,0,2.5.6,4.4,1.9,5.7,1.3,1.3,2.9,2,4.8,2,1.2,0,2.4-.3,3.4-.9Z"/>
    <path class="cls-1" d="M144.5,8.6c1.4.8,2.5,1.9,3.4,3.4.8,1.5,1.2,3.3,1.2,5.4v13.7h-4.7v-13c0-2.1-.5-3.7-1.5-4.8s-2.4-1.7-4.2-1.7-3.2.6-4.2,1.7-1.6,2.7-1.6,4.8v13h-4.7V7.9h4.7v2.7c.8-1,1.8-1.7,3-2.2s2.5-.8,3.9-.8c1.7-.1,3.3.3,4.7,1Z"/>
    <rect class="cls-1" x="73.3" y="7.5" width="13.1" height="3.9"/>
  </g>
</svg>